<?xml version="1.0" standalone="no"?>
<!DOCTYPE svg PUBLIC "-//W3C//DTD SVG 20010904//EN"
 "http://www.w3.org/TR/2001/REC-SVG-20010904/DTD/svg10.dtd">
<svg version="1.0" xmlns="http://www.w3.org/2000/svg"
 width="300.000000pt" height="293.000000pt" viewBox="0 0 300.000000 293.000000"
 preserveAspectRatio="xMidYMid meet">
<g transform="translate(0.000000,293.000000) scale(0.100000,-0.100000)"
fill="#e3e3e3" stroke="none">
<path d="M1425 2856 c-64 -39 -439 -253 -820 -468 -82 -47 -239 -133 -347
-193 -195 -106 -198 -108 -198 -141 0 -28 4 -34 34 -44 19 -6 36 -19 38 -28 3
-11 28 -23 71 -36 66 -18 67 -19 67 -52 0 -28 -5 -36 -25 -44 -22 -8 -25 -15
-25 -58 0 -27 3 -83 6 -125 7 -72 8 -77 35 -86 22 -7 29 -16 29 -35 0 -15 5
-26 10 -26 14 0 14 -347 0 -355 -6 -3 -10 -22 -10 -41 0 -36 -18 -49 -80 -60
-44 -8 -51 -13 -48 -36 2 -19 9 -23 40 -23 21 0 38 3 38 8 0 4 4 6 9 2 5 -3
12 -1 16 5 15 24 25 6 25 -45 0 -30 5 -55 10 -55 6 0 10 -78 10 -215 0 -126
-4 -215 -9 -215 -17 0 -42 -32 -37 -47 4 -9 -1 -17 -14 -20 -16 -4 -20 -14
-20 -44 0 -35 -2 -39 -26 -39 -26 0 -26 -2 -22 -45 l6 -45 -34 0 -34 0 0 -50
0 -50 -45 0 -45 0 1 -65 2 -65 1468 0 1469 0 0 65 0 65 -45 0 -45 0 0 50 c0
49 -1 50 -30 50 -29 0 -30 2 -30 45 0 41 -2 45 -25 45 -22 0 -25 4 -25 40 0
29 -4 40 -15 40 -9 0 -15 9 -15 24 0 14 -8 31 -19 38 -17 12 -19 33 -26 220
-6 189 -5 207 10 216 15 8 17 19 13 61 -4 45 -3 51 11 45 55 -23 93 -27 108
-11 22 21 4 43 -42 51 -19 4 -35 11 -35 16 0 6 -3 9 -7 9 -26 -4 -33 4 -33 41
0 29 -4 40 -15 40 -13 0 -15 26 -15 175 0 149 2 175 15 175 9 0 15 9 15 25 0
17 8 29 24 36 16 8 26 23 31 46 3 19 4 37 1 40 -3 3 -1 14 5 25 6 12 8 45 3
84 -5 56 -10 67 -30 76 -18 9 -24 19 -24 43 0 32 2 33 70 51 54 14 70 22 72
38 2 13 14 23 36 28 31 8 33 12 30 45 -3 36 -4 37 -193 140 -254 140 -532 295
-630 353 -122 72 -614 350 -617 349 -2 0 -34 -20 -73 -43z m249 -97 c88 -51
274 -156 411 -234 320 -182 559 -315 708 -394 71 -38 117 -69 117 -78 0 -11
-7 -14 -25 -9 -34 9 -432 220 -725 386 -509 288 -641 360 -655 360 -12 0 -160
-81 -640 -350 -261 -146 -499 -276 -648 -353 -90 -46 -109 -53 -114 -40 -8 20
5 30 157 110 129 68 279 152 650 363 118 67 287 163 375 212 88 50 169 97 180
104 11 8 26 14 33 14 8 0 87 -41 176 -91z m76 -141 c232 -125 360 -198 360
-205 0 -4 -512 255 -575 292 l-30 18 -192 -101 c-245 -129 -433 -223 -433
-218 0 8 124 78 380 215 l243 130 31 -16 c17 -9 114 -61 216 -115z m7 -55
c142 -71 339 -166 438 -212 507 -238 645 -309 645 -330 0 -12 -4 -21 -9 -21
-4 0 -167 72 -362 161 -195 89 -426 194 -514 234 -88 40 -226 105 -306 144
l-147 71 -183 -89 c-101 -49 -332 -157 -514 -239 -181 -83 -399 -182 -482
-220 -151 -70 -153 -70 -153 -45 0 22 25 36 282 162 156 76 387 186 513 245
177 83 396 192 532 265 1 0 118 -56 260 -126z m-95 -84 c214 -99 736 -335
1048 -475 35 -16 58 -30 50 -32 -15 -2 -596 254 -1053 465 l-208 96 -152 -73
c-84 -39 -255 -118 -382 -175 -126 -56 -331 -149 -455 -205 -261 -118 -270
-122 -270 -111 0 5 125 65 278 134 152 69 376 171 497 226 121 54 276 126 345
159 69 34 130 61 137 61 6 1 80 -31 165 -70z m-176 -85 c-3 -8 -11 -14 -18
-14 -18 0 -15 89 3 101 11 7 15 -1 17 -32 2 -23 1 -48 -2 -55z m64 36 c0 -27
-4 -50 -10 -50 -5 0 -10 23 -10 50 0 28 5 50 10 50 6 0 10 -22 10 -50z m-120
-25 c0 -25 -2 -45 -4 -45 -2 0 -11 -3 -20 -6 -13 -5 -16 2 -16 38 0 47 5 58
27 58 9 0 13 -14 13 -45z m180 -6 c0 -31 -4 -48 -10 -44 -5 3 -10 26 -10 51 0
24 5 44 10 44 6 0 10 -23 10 -51z m-262 -70 c-10 -6 -14 3 -16 38 -2 30 1 49
10 54 10 6 14 -3 16 -38 2 -30 -1 -49 -10 -54z m322 45 c0 -24 -4 -44 -10 -44
-5 0 -10 23 -10 51 0 31 4 48 10 44 6 -3 10 -26 10 -51z m-370 -24 c0 -38 -4
-50 -15 -50 -11 0 -15 11 -15 43 0 24 3 47 7 50 16 17 23 3 23 -43z m432 -8
c2 -26 0 -41 -7 -39 -5 2 -11 26 -13 53 -4 61 14 48 20 -14z m-492 -16 c0 -30
-5 -46 -15 -50 -12 -4 -15 4 -15 38 0 23 3 46 7 49 15 16 23 4 23 -37z m558
-10 c2 -36 0 -47 -10 -44 -8 3 -14 24 -16 52 -2 36 0 47 10 44 8 -3 14 -24 16
-52z m-137 -27 c228 -99 819 -350 967 -411 109 -46 122 -53 122 -75 0 -20 -4
-24 -17 -18 -10 4 -49 18 -88 32 -38 14 -155 63 -260 108 -104 46 -255 108
-335 140 -80 31 -172 70 -205 85 -33 16 -123 55 -200 87 l-140 59 -152 -61
c-83 -34 -157 -66 -165 -72 -7 -6 -121 -55 -253 -108 -132 -53 -244 -101 -250
-105 -13 -10 -421 -180 -432 -180 -3 0 -3 12 -1 27 3 24 15 32 113 74 61 26
254 108 430 183 425 180 685 293 692 300 4 3 7 6 8 6 1 0 76 -32 166 -71z
m-481 7 c0 -30 -5 -46 -15 -50 -12 -4 -15 4 -15 38 0 23 3 46 7 49 15 16 23 4
23 -37z m678 -9 c3 -39 0 -46 -12 -41 -11 4 -16 20 -16 51 0 61 24 52 28 -10z
m-740 -19 c-4 -59 -28 -63 -28 -4 0 35 4 46 16 46 12 0 14 -9 12 -42z m802 -4
c0 -59 -24 -55 -28 4 -2 33 0 42 12 42 12 0 16 -11 16 -46z m60 -31 c0 -61
-24 -52 -28 10 -3 39 0 46 12 41 11 -4 16 -20 16 -51z m-920 8 c0 -25 -5 -41
-15 -45 -12 -4 -15 4 -15 39 0 33 4 45 15 45 11 0 15 -11 15 -39z m-62 -23
c-4 -55 -28 -64 -28 -10 0 21 3 42 7 45 16 17 24 4 21 -35z m638 -8 c76 -27
139 -50 141 -50 2 0 3 -16 3 -36 0 -21 -4 -33 -10 -29 -5 3 -10 15 -10 26 0
14 -13 25 -46 39 -79 34 -90 35 -120 5 -23 -23 -26 -32 -21 -68 3 -23 11 -43
16 -45 6 -2 8 -9 5 -14 -4 -6 -2 -8 3 -5 6 4 16 0 23 -8 15 -18 71 -20 88 -3
20 20 14 67 -13 93 -30 30 -61 32 -75 4 -15 -26 11 -69 41 -69 28 0 22 43 -6
48 -20 4 -20 3 -1 -11 11 -8 15 -17 9 -20 -16 -10 -44 26 -33 43 13 21 58 -3
66 -34 8 -32 -1 -46 -31 -46 -27 0 -75 51 -75 80 0 24 26 50 51 50 80 0 141
-118 89 -170 -38 -38 -135 -13 -165 44 -22 40 -14 117 15 146 19 19 19 20 -27
40 -25 11 -47 19 -47 18 -1 -2 1 -59 4 -128 l5 -124 98 -34 c53 -19 97 -39 97
-43 0 -14 -13 -11 -114 25 l-96 34 -91 -34 c-95 -35 -119 -40 -119 -25 0 5 43
24 95 42 l95 32 0 124 c0 67 -4 123 -9 123 -17 0 -76 -29 -60 -30 24 0 48 -32
55 -71 4 -26 3 -30 -5 -19 -9 12 -11 11 -11 -8 0 -13 -7 -36 -15 -52 -9 -17
-15 -32 -14 -36 0 -3 -3 -9 -7 -12 -4 -4 -4 0 0 8 5 9 2 8 -7 -2 -8 -10 -16
-15 -19 -13 -3 3 -11 -1 -18 -10 -17 -20 -79 -19 -102 2 -29 26 -24 96 10 133
35 39 98 52 118 25 20 -28 17 -50 -12 -85 -20 -23 -34 -30 -53 -28 -34 4 -41
46 -12 72 22 20 51 15 51 -7 0 -20 -26 -41 -35 -27 -3 5 -1 10 4 10 6 0 11 5
11 10 0 16 -17 11 -24 -7 -10 -24 8 -37 33 -24 26 14 28 57 3 70 -32 17 -81
-24 -82 -69 0 -33 17 -50 50 -50 58 0 110 73 89 127 -19 50 -47 54 -133 22
-44 -17 -55 -26 -53 -42 1 -11 -4 -22 -11 -24 -10 -4 -13 4 -10 28 3 32 6 34
133 85 72 29 135 53 141 53 7 1 74 -21 150 -49z m402 2 c2 -33 0 -42 -12 -42
-12 0 -16 11 -16 46 0 59 24 55 28 -4z m-1110 -63 c-10 -6 -14 2 -16 33 -2 26
1 44 10 49 10 6 14 -2 16 -33 2 -26 -1 -44 -10 -49z m1162 35 c0 -27 -4 -43
-10 -39 -5 3 -10 24 -10 46 0 21 5 39 10 39 6 0 10 -21 10 -46z m-1210 -19 c0
-33 -4 -45 -15 -45 -11 0 -15 11 -15 38 0 21 3 42 7 45 16 16 23 4 23 -38z
m1270 -6 c0 -21 -4 -39 -10 -39 -5 0 -10 21 -10 46 0 27 4 43 10 39 6 -3 10
-24 10 -46z m-1326 -15 c-1 -19 -6 -40 -13 -47 -8 -8 -11 1 -11 36 0 31 4 47
13 47 7 0 12 -13 11 -36z m1376 -4 c0 -22 -4 -40 -10 -40 -5 0 -10 18 -10 40
0 22 5 40 10 40 6 0 10 -18 10 -40z m-1432 -22 c-4 -55 -28 -64 -28 -10 0 21
3 42 7 45 16 17 24 4 21 -35z m1482 2 c0 -22 -4 -40 -10 -40 -5 0 -10 18 -10
40 0 22 5 40 10 40 6 0 10 -18 10 -40z m57 -30 c0 -25 -4 -39 -11 -37 -13 4
-20 51 -12 73 10 27 23 6 23 -36z m-1587 0 c0 -29 -4 -40 -15 -40 -11 0 -15
11 -15 40 0 29 4 40 15 40 11 0 15 -11 15 -40z m468 18 c-3 -7 -59 -35 -126
-63 l-122 -49 0 -112 0 -113 55 -20 c30 -11 66 -23 80 -27 25 -6 35 -24 14
-24 -6 0 -43 11 -82 25 l-70 26 -64 -26 c-65 -26 -93 -31 -93 -17 0 4 31 18
70 31 l69 24 3 125 3 126 125 52 c138 58 143 59 138 42z m718 -24 c49 -20 106
-45 127 -55 l38 -20 -7 -118 -7 -118 79 -28 c43 -16 83 -32 89 -37 17 -15 -20
-8 -95 17 l-73 25 -61 -24 c-76 -30 -91 -33 -93 -21 -1 6 30 21 68 34 l69 25
0 121 0 121 -112 46 c-62 25 -114 51 -116 57 -5 15 -7 16 94 -25z m454 -15 c0
-21 -4 -39 -10 -39 -5 0 -10 21 -10 46 0 27 4 43 10 39 6 -3 10 -24 10 -46z
m-1690 1 c0 -29 -4 -40 -15 -40 -10 0 -15 10 -15 33 0 19 3 37 7 40 15 16 23
5 23 -33z m-50 -19 c0 -25 -5 -41 -15 -45 -12 -4 -15 3 -15 33 0 21 3 41 7 44
15 16 23 5 23 -32z m1790 -2 c0 -28 -4 -39 -12 -37 -17 6 -17 78 0 78 7 0 12
-15 12 -41z m-477 -42 l22 -15 -30 -8 c-16 -4 -50 -15 -73 -26 -43 -18 -44
-18 -68 1 -13 10 -21 20 -19 23 3 2 7 22 11 44 3 21 8 42 10 46 5 7 107 -38
147 -65z m-1363 24 c0 -16 -7 -34 -15 -41 -13 -11 -15 -7 -15 27 0 22 3 43 6
46 12 12 24 -4 24 -32z m633 32 c3 -5 8 -29 12 -55 6 -40 4 -48 -14 -57 -15
-9 -29 -8 -58 4 -68 26 -117 33 -131 18 -7 -7 -18 -13 -25 -13 -17 1 34 39 53
40 8 1 44 16 80 35 72 37 77 38 83 28z m1255 -37 c2 -28 0 -37 -10 -34 -7 3
-14 22 -16 42 -2 28 0 37 10 34 7 -3 14 -22 16 -42z m52 -22 c0 -21 -4 -34
-11 -32 -6 2 -10 7 -10 11 1 4 1 21 1 38 0 17 4 28 10 24 6 -3 10 -22 10 -41z
m-1990 2 c0 -21 -6 -36 -15 -40 -12 -4 -15 3 -15 34 0 29 4 40 15 40 10 0 15
-10 15 -34z m400 14 c0 -6 -18 -19 -41 -29 -40 -18 -40 -19 -14 -25 60 -15 54
-119 -12 -176 -39 -35 -75 -38 -103 -10 -47 47 0 150 69 150 45 0 69 -63 34
-91 -10 -9 -14 -9 -10 -2 11 17 -2 61 -20 67 -37 14 -73 -37 -58 -83 9 -30 59
-28 90 4 46 45 23 125 -36 125 -37 0 -89 -26 -89 -45 0 -7 -4 -17 -10 -20 -6
-4 -10 6 -10 23 0 27 6 32 103 75 56 25 103 46 105 46 1 1 2 -4 2 -9z m1325
-58 c22 -8 43 -20 47 -26 11 -16 10 -56 -2 -56 -5 0 -10 11 -10 24 0 19 -9 27
-40 40 -54 21 -67 20 -95 -9 -28 -27 -32 -70 -10 -101 8 -12 12 -24 9 -26 -2
-3 3 -11 13 -19 14 -12 16 -12 8 0 -6 11 -3 13 17 8 55 -14 82 53 39 96 -28
28 -55 13 -59 -32 -4 -40 -22 -30 -22 13 0 91 114 64 127 -30 4 -34 1 -46 -17
-64 -47 -47 -150 1 -150 71 0 40 23 93 49 111 21 15 20 16 -24 32 -25 10 -43
22 -40 27 3 4 31 -3 63 -17 31 -14 75 -33 97 -42z m315 22 c0 -19 -4 -34 -10
-34 -5 0 -10 18 -10 41 0 24 4 38 10 34 6 -3 10 -22 10 -41z m-2092 -1 c-4
-48 -28 -57 -28 -10 0 18 3 37 7 40 16 16 24 4 21 -30z m-50 -20 c-4 -48 -28
-57 -28 -10 0 18 3 37 7 40 16 16 24 4 21 -30z m2192 2 c0 -24 -5 -35 -15 -35
-10 0 -15 11 -15 35 0 24 5 35 15 35 10 0 15 -11 15 -35z m-2240 -19 c0 -19
-4 -38 -10 -41 -6 -4 -10 10 -10 34 0 23 5 41 10 41 6 0 10 -15 10 -34z m2285
-4 c0 -46 -19 -44 -23 2 -3 28 0 37 10 34 7 -3 13 -19 13 -36z m-2333 -55 c-2
-4 -8 -5 -13 -2 -11 7 -12 58 -1 69 7 8 21 -53 14 -67z m2378 32 c0 -24 -4
-38 -10 -34 -5 3 -10 22 -10 41 0 19 5 34 10 34 6 0 10 -18 10 -41z m-1580 12
c36 -15 46 -24 51 -50 8 -37 -6 -42 -15 -6 -7 26 -59 55 -99 55 -30 0 -57 -29
-57 -62 0 -60 94 -106 120 -58 15 29 -13 80 -44 80 -29 0 -48 -22 -39 -45 4
-13 3 -16 -5 -11 -16 9 -15 49 0 64 33 33 101 -7 112 -66 10 -60 -38 -86 -111
-60 -57 21 -70 111 -23 158 24 24 51 24 110 1z m145 -39 c3 -7 5 -118 6 -245
1 -358 1 -357 -16 -357 -8 0 -15 7 -15 16 0 8 -5 12 -11 9 -6 -4 -8 -13 -5
-20 3 -8 -3 -17 -14 -20 -11 -3 -30 -19 -44 -36 -30 -36 -46 -37 -46 -4 0 14
-4 25 -10 25 -6 0 -10 59 -10 157 0 121 3 154 12 145 7 -7 13 -54 15 -119 2
-60 6 -113 8 -120 2 -7 17 -11 32 -10 28 2 28 4 28 67 0 138 -9 177 -56 232
-37 44 -40 52 -26 60 10 5 17 20 17 34 0 16 8 28 24 35 33 15 46 49 46 119 0
54 2 60 28 72 25 12 27 12 30 -7 2 -11 5 -26 7 -33z m500 42 c21 -14 25 -24
25 -69 0 -70 13 -102 50 -123 22 -12 30 -24 30 -44 0 -18 5 -28 15 -28 23 0
18 -25 -9 -39 -13 -8 -36 -35 -50 -61 -22 -40 -26 -59 -24 -122 1 -41 -1 -79
-4 -84 -10 -17 8 -47 31 -49 32 -2 39 19 37 120 -1 64 2 99 14 120 14 28 15
22 18 -129 2 -131 0 -161 -12 -168 -8 -5 -12 -16 -9 -28 8 -29 -14 -25 -43 9
-14 17 -33 32 -42 35 -15 5 -17 20 -17 111 1 71 -3 105 -10 105 -8 0 -11 -32
-10 -100 1 -86 -2 -100 -15 -98 -13 3 -15 38 -18 258 -3 234 3 400 14 400 3 0
16 -7 29 -16z m249 -6 c19 -26 21 -58 5 -58 -7 0 -9 -11 -6 -30 6 -28 -4 -44
-28 -45 -5 -1 -9 -5 -8 -11 1 -5 -6 -10 -15 -11 -9 -1 -31 -5 -48 -8 -67 -14
-90 71 -33 120 41 34 92 32 97 -3 2 -13 0 -31 -4 -40 -6 -13 -8 -10 -13 13 -8
39 -45 41 -73 5 -23 -31 -15 -58 18 -66 69 -18 125 93 63 126 -32 17 -117 -14
-131 -49 -9 -21 -12 -23 -15 -8 -9 35 3 51 52 68 72 25 120 24 139 -3z m-514
-54 c0 -32 2 -35 22 -29 17 6 20 4 15 -10 -4 -9 -7 -95 -7 -190 0 -159 -1
-174 -17 -173 -10 0 -26 -3 -35 -7 -17 -7 -18 7 -18 213 0 219 1 228 33 231 4
1 7 -15 7 -35z m950 -19 c47 -20 94 -38 105 -40 31 -4 199 -65 209 -76 15 -14
-9 -11 -51 6 -19 8 -44 15 -54 15 -27 0 -49 -28 -49 -64 0 -27 6 -36 34 -51
55 -30 94 2 61 51 -21 32 -57 29 -65 -6 -5 -22 -7 -23 -13 -7 -17 46 35 73 80
42 42 -30 36 -109 -9 -120 -29 -7 -93 19 -102 40 -14 38 0 99 28 117 6 4 -2
11 -18 18 -16 6 -33 13 -37 16 -5 3 -9 -39 -9 -94 l0 -99 63 -18 c75 -22 79
-24 72 -35 -3 -5 -36 2 -73 14 l-69 24 -74 -24 c-85 -27 -92 -28 -87 -13 2 6
35 21 73 33 l70 22 3 95 3 95 -108 45 c-58 25 -108 50 -111 57 -4 14 1 12 128
-43z m-1770 38 c0 -8 -194 -93 -211 -93 -6 0 -9 -40 -7 -97 l3 -96 73 -25 c39
-13 72 -28 72 -33 0 -11 7 -13 -81 15 -75 22 -78 23 -122 6 -65 -25 -97 -32
-97 -21 0 5 29 20 65 33 l65 23 0 92 c0 51 -3 93 -7 93 -5 0 -18 -3 -29 -6
-21 -6 -21 -6 2 -29 24 -25 32 -55 14 -55 -5 0 -10 -11 -10 -23 0 -45 -79 -89
-119 -67 -29 15 -29 76 1 107 41 44 107 20 88 -32 -6 -17 -7 -16 -14 8 -8 32
-35 36 -60 8 -37 -41 3 -88 51 -61 39 22 51 61 29 94 -20 31 -40 32 -100 6
-32 -13 -46 -16 -46 -7 0 13 127 63 195 76 22 5 81 27 130 49 91 41 115 48
115 35z m154 -19 c8 -22 -11 -54 -33 -54 -24 0 -34 26 -21 51 13 23 46 25 54
3z m606 -204 c0 -213 -1 -220 -20 -220 -19 0 -20 7 -20 198 0 208 4 242 26
242 12 0 14 -39 14 -220z m782 195 c8 -19 8 -29 0 -37 -23 -23 -61 14 -48 47
9 23 35 18 48 -10z m-1127 -5 c17 -18 17 -22 4 -36 -20 -20 -49 -8 -49 20 0
40 18 46 45 16z m283 -421 c-10 -7 -14 36 -16 208 -2 167 1 218 10 224 10 7
14 -36 16 -208 2 -167 -1 -218 -10 -224z m206 243 c-2 -235 -1 -232 -14 -232
-6 0 -10 78 -10 215 0 165 3 215 13 215 9 0 12 -46 11 -198z m363 172 c7 -20
-22 -45 -43 -37 -17 6 -18 25 -2 41 17 17 38 15 45 -4z m-607 -208 c0 -181 -2
-215 -15 -220 -13 -5 -15 23 -15 214 0 189 2 220 15 220 13 0 15 -30 15 -214z
m340 -1 c0 -137 -4 -215 -10 -215 -6 0 -10 78 -10 215 0 137 4 215 10 215 6 0
10 -78 10 -215z m718 166 c5 -14 -74 -52 -93 -45 -12 5 -14 15 -9 43 4 20 8
39 11 43 5 9 87 -28 91 -41z m-1700 -10 c4 -48 4 -48 -77 -14 l-35 15 39 24
c54 33 69 28 73 -25z m-75 -47 c26 -9 47 -21 47 -27 0 -7 3 -23 7 -36 4 -17 3
-22 -5 -17 -7 4 -12 16 -12 26 0 21 -55 50 -96 50 -29 0 -54 -25 -54 -55 0
-54 87 -89 110 -45 9 17 6 25 -14 45 -30 30 -56 24 -56 -13 0 -19 -3 -23 -11
-15 -6 6 -9 21 -7 34 2 19 10 25 35 27 42 4 73 -26 73 -72 0 -46 -20 -60 -74
-52 -68 11 -94 63 -61 126 23 44 46 49 118 24z m1873 8 c26 -17 34 -49 19 -78
-8 -15 -12 -31 -10 -34 3 -4 -5 -16 -17 -26 -14 -12 -18 -14 -13 -4 6 11 3 10
-12 -2 -64 -57 -138 23 -80 86 28 31 58 40 81 23 15 -11 17 -20 11 -43 l-9
-29 -4 27 c-4 33 -23 41 -51 22 -25 -18 -28 -62 -5 -71 25 -10 67 10 83 38 13
24 13 29 -3 54 -15 23 -23 26 -49 22 -58 -10 -87 -25 -87 -47 0 -11 -5 -20
-11 -20 -6 0 -9 12 -7 27 2 22 12 31 48 45 48 18 98 23 116 10z m-1746 -49 c0
-14 7 -31 16 -37 11 -9 14 -26 12 -69 l-3 -58 -35 37 c-19 20 -29 34 -22 30 6
-4 12 -2 12 3 0 6 -4 11 -10 11 -5 0 -10 5 -10 11 0 5 5 7 10 4 15 -9 12 4 -5
21 -18 19 -20 71 -2 77 22 8 37 -5 37 -30z m1555 -20 c-2 -21 -4 -47 -4 -58
-1 -14 -4 -16 -9 -7 -5 7 -7 33 -5 57 3 29 0 45 -7 45 -7 0 -10 -22 -9 -65 2
-51 -2 -69 -16 -85 -10 -11 -22 -20 -27 -20 -15 0 -9 107 7 120 8 7 15 23 15
35 0 27 17 36 41 24 12 -6 16 -19 14 -46z m-1951 1 c7 -19 -10 -44 -29 -44
-20 0 -26 28 -9 45 20 19 30 19 38 -1z m2334 4 c16 -16 15 -48 -2 -48 -20 0
-39 27 -32 45 7 18 18 19 34 3z m-2088 -13 c15 -18 5 -35 -21 -35 -14 0 -19 7
-19 25 0 28 21 33 40 10z m356 -41 c12 5 14 -20 14 -165 0 -132 -3 -170 -12
-166 -7 2 -23 0 -35 -4 l-23 -9 0 194 c0 147 3 195 13 199 7 2 15 -9 20 -25 5
-20 13 -28 23 -24z m1096 23 c2 -18 8 -27 20 -27 17 0 18 -13 18 -167 l0 -168
-35 -1 -35 -1 0 193 c0 145 3 193 13 197 16 6 17 5 19 -26z m398 13 c0 -23
-26 -38 -41 -23 -14 14 0 43 22 43 12 0 19 -7 19 -20z m-1563 -192 c-2 -180
-3 -193 -21 -196 -14 -3 -17 0 -12 13 3 9 6 97 6 196 0 149 2 179 14 179 13 0
15 -31 13 -192z m123 2 c0 -145 -3 -190 -12 -190 -10 0 -12 43 -10 190 2 112
7 190 12 190 6 0 10 -76 10 -190z m997 -2 c-2 -165 -4 -193 -18 -196 -13 -2
-15 20 -17 172 -3 168 3 216 28 216 5 0 8 -82 7 -192z m121 2 c-2 -118 -7
-190 -13 -190 -6 0 -11 72 -13 190 -2 166 0 190 13 190 13 0 15 -24 13 -190z
m-1288 -15 c0 -167 -2 -195 -15 -195 -13 0 -15 28 -15 188 0 104 3 192 7 195
19 20 23 -10 23 -188z m230 -6 c0 -144 -3 -189 -12 -189 -10 0 -12 44 -10 195
2 122 6 193 12 190 6 -4 10 -86 10 -196z m890 6 c0 -167 -2 -195 -15 -195 -13
0 -15 28 -15 189 0 182 1 192 28 200 1 1 2 -87 2 -194z m230 -6 c0 -114 -4
-189 -10 -189 -9 0 -20 377 -11 386 16 15 21 -32 21 -197z m92 99 c-28 -29
-54 -49 -59 -44 -4 5 -2 11 6 14 8 2 32 24 54 48 22 24 43 42 45 39 3 -2 -18
-28 -46 -57z m-1523 -25 c14 -13 21 -23 15 -23 -14 0 -94 80 -94 94 0 6 12 -2
27 -19 14 -16 38 -40 52 -52z m1114 40 c-26 -34 -28 -43 -29 -142 -1 -58 -6
-107 -11 -108 -7 -3 -9 77 -4 193 1 19 9 32 51 82 24 28 19 9 -7 -25z m-1200
-18 c-4 -11 -1 -13 11 -9 12 5 19 1 22 -12 3 -11 20 -26 37 -35 l32 -16 3
-116 c2 -71 -1 -117 -7 -117 -5 0 -11 -19 -13 -42 -2 -29 -8 -44 -18 -46 -13
-2 -15 9 -13 68 2 52 -1 70 -9 68 -8 -3 -12 -30 -13 -75 0 -66 -2 -72 -31 -97
-18 -14 -36 -26 -42 -26 -16 0 -22 66 -22 241 0 142 2 168 16 173 10 4 13 13
9 25 -4 13 0 23 12 29 22 13 34 6 26 -13z m1685 13 c7 -7 12 -20 12 -31 0 -10
7 -25 15 -33 12 -13 15 -48 15 -185 0 -106 -4 -169 -10 -169 -5 0 -10 -11 -10
-25 0 -14 -4 -25 -9 -25 -4 0 -20 11 -35 25 -15 14 -31 25 -37 25 -5 0 -9 7
-9 15 0 18 -17 20 -22 3 -9 -25 -28 5 -28 43 0 21 -4 39 -10 39 -6 0 -10 46
-10 118 l0 118 34 14 c19 7 37 22 40 32 3 15 10 18 25 13 12 -4 21 -2 21 4 0
6 -5 11 -11 11 -5 0 -7 5 -4 10 8 13 18 13 33 -2z m-1195 -50 c3 -18 6 -62 6
-98 1 -36 4 -73 7 -84 4 -13 2 -17 -7 -14 -10 3 -15 28 -16 84 -2 43 -4 94 -6
112 -2 17 0 32 4 32 4 0 9 -15 12 -32z m-713 -3 c0 -9 7 -18 15 -21 12 -5 15
-32 15 -153 l0 -146 -24 -1 -25 -2 -3 162 c-2 88 -2 164 0 169 6 13 22 7 22
-8z m2090 -11 c0 -19 4 -25 15 -20 13 5 15 -15 15 -142 l0 -147 -25 -1 -25 -2
-2 122 c-1 66 -3 142 -3 169 -1 32 3 47 12 47 7 0 13 -11 13 -26z m-2130 -154
c0 -144 -2 -170 -15 -170 -13 0 -15 25 -15 163 0 90 3 167 7 170 19 20 23 -8
23 -163z m110 0 c0 -107 -4 -170 -10 -170 -6 0 -10 63 -10 170 0 107 4 170 10
170 6 0 10 -63 10 -170z m1980 0 c0 -144 -2 -170 -15 -170 -13 0 -15 26 -15
170 0 144 2 170 15 170 13 0 15 -26 15 -170z m101 157 c-1 -4 -1 -79 -1 -168
0 -108 -3 -158 -10 -154 -14 9 -12 337 2 333 5 -2 9 -7 9 -11z m-2231 -167 c0
-144 -2 -170 -15 -170 -13 0 -15 25 -15 164 0 157 2 167 28 175 1 1 2 -75 2
-169z m210 -5 c0 -103 -4 -165 -10 -165 -6 0 -10 62 -10 165 0 103 4 165 10
165 6 0 10 -62 10 -165z m1880 0 c0 -140 -2 -165 -15 -165 -13 0 -15 25 -15
165 0 140 2 165 15 165 13 0 15 -25 15 -165z m200 0 c0 -103 -4 -165 -10 -165
-6 0 -10 62 -10 165 0 103 4 165 10 165 6 0 10 -62 10 -165z m-1057 69 l92
-25 0 -45 c0 -28 -4 -44 -12 -44 -8 0 -13 14 -13 34 0 33 -8 42 -52 52 -5 1
-11 3 -15 4 -16 5 -29 7 -51 8 -13 1 -20 7 -17 12 3 6 4 10 1 10 -2 0 -11 3
-20 6 -14 5 -16 -9 -16 -124 l0 -130 33 -5 c71 -10 153 -30 162 -39 11 -11
-14 -7 -131 19 -68 15 -77 15 -168 -4 l-96 -20 0 52 c0 39 4 52 15 52 10 0 15
-11 15 -32 l0 -32 75 15 75 15 0 104 c0 96 -1 105 -17 98 -10 -4 -36 -11 -58
-16 -66 -13 -75 -19 -75 -50 0 -20 -5 -29 -16 -29 -12 0 -14 10 -12 47 l3 47
85 22 c110 28 105 28 213 -2z m-143 -123 l0 -79 -50 -11 c-28 -6 -55 -11 -60
-11 -4 0 -7 24 -5 53 2 28 4 64 4 78 1 25 14 31 104 48 4 0 7 -35 7 -78z m170
59 c23 -6 25 -11 28 -80 2 -51 6 -70 12 -60 8 13 10 12 10 -2 0 -11 -8 -18
-20 -18 -11 0 -20 3 -20 8 0 4 -16 8 -36 10 -20 1 -40 5 -45 8 -5 3 -9 39 -9
80 l0 74 28 -6 c15 -4 38 -10 52 -14z m-537 -126 c-3 -10 -17 -8 -61 7 -31 11
-61 24 -66 29 -22 22 -26 6 -26 -94 0 -71 4 -107 13 -114 6 -5 35 -13 62 -17
55 -7 97 -25 60 -25 -11 0 -46 6 -78 14 -39 9 -72 11 -105 5 -26 -5 -62 -11
-79 -14 l-33 -6 0 56 c0 30 5 55 10 55 10 0 15 -29 10 -59 -1 -11 9 -12 51 -7
29 4 56 9 61 12 4 3 8 46 8 96 0 82 -2 89 -17 83 -10 -4 -37 -12 -61 -17 -36
-8 -42 -13 -37 -29 4 -13 2 -19 -9 -19 -12 0 -16 10 -16 35 0 27 4 35 18 35 9
0 44 8 77 18 59 18 60 18 141 -7 56 -16 81 -28 77 -37z m237 46 c0 -5 -8 -10
-17 -11 -10 0 -26 -2 -35 -4 -10 -2 -18 1 -18 5 0 5 12 11 28 13 15 2 30 5 35
6 4 0 7 -3 7 -9z m417 -5 c33 -10 58 -25 73 -45 13 -17 37 -34 53 -38 17 -4
32 -13 35 -20 6 -20 -60 8 -85 35 -12 14 -23 29 -25 34 -2 6 -31 15 -66 22
-34 6 -62 15 -62 19 0 12 20 10 77 -7z m403 -4 c57 -16 65 -21 68 -44 2 -16
-2 -27 -9 -27 -6 0 -9 8 -6 19 3 14 1 18 -9 14 -8 -3 -14 0 -14 7 0 7 -7 10
-15 7 -8 -4 -17 -2 -20 4 -4 5 -12 8 -18 7 -7 -1 -23 4 -35 11 -13 7 -24 11
-25 9 -1 -2 -1 -53 1 -114 l3 -112 50 -6 c53 -7 105 -24 97 -31 -2 -2 -39 4
-82 14 -70 17 -84 17 -149 5 -40 -8 -75 -14 -79 -14 -5 0 -8 27 -8 60 0 33 4
60 10 60 6 0 10 -21 10 -46 0 -35 3 -45 14 -41 7 3 34 9 60 12 l46 7 0 93 0
93 -60 -15 c-37 -10 -60 -21 -60 -29 0 -8 -5 -14 -11 -14 -6 0 -9 12 -7 27 3
24 10 29 68 44 84 22 102 22 180 0z m-900 -11 c0 -5 -6 -10 -14 -10 -7 0 -25
-9 -40 -21 -14 -11 -26 -16 -26 -10 0 6 5 11 10 11 6 0 10 6 10 14 0 13 16 22
48 25 6 0 12 -3 12 -9z m20 -410 l-5 -255 -22 -3 c-19 -3 -23 -10 -23 -42 0
-30 -5 -40 -20 -45 -11 -3 -20 -13 -20 -21 0 -8 -7 -14 -15 -14 -9 0 -15 9
-15 25 0 18 -7 26 -25 31 l-25 6 0 229 c0 146 4 229 10 229 6 0 10 33 10 79 0
75 1 79 25 85 13 3 36 22 51 41 14 19 29 33 33 31 4 -3 13 -1 21 4 22 13 26
-73 20 -380z m492 378 c12 -7 35 -28 51 -45 16 -18 38 -33 48 -33 17 0 19 -8
19 -80 0 -47 4 -80 10 -80 6 0 10 -83 10 -230 0 -222 -1 -230 -20 -230 -21 0
-40 -27 -33 -47 3 -8 -4 -13 -17 -13 -12 0 -18 4 -15 10 3 5 -3 15 -15 22 -14
9 -20 23 -20 49 0 32 -3 37 -30 42 l-29 6 -3 253 c-4 298 -1 388 13 388 5 0
19 -6 31 -12z m-862 -68 c0 -60 -3 -70 -17 -70 -10 0 -28 -3 -41 -6 -23 -6
-23 -5 -20 62 3 63 5 69 28 75 49 14 50 13 50 -61z m155 48 c15 -6 10 -7 -17
-5 l-38 3 0 -42 c0 -37 3 -42 25 -46 14 -3 25 -1 25 3 0 5 7 9 15 9 9 0 15
-10 15 -26 0 -23 -3 -25 -26 -20 -15 4 -38 9 -53 12 -25 5 -26 7 -23 70 4 64
4 64 30 57 15 -3 36 -10 47 -15z m965 -48 c0 -38 -4 -70 -9 -70 -5 0 -23 -3
-40 -6 -28 -6 -31 -4 -31 20 0 26 15 36 22 15 2 -5 11 -7 21 -4 12 5 17 18 17
45 0 37 -1 39 -37 42 l-38 4 35 11 c60 19 60 19 60 -57z m139 59 c30 -11 31
-13 31 -70 0 -38 4 -59 12 -59 6 0 9 -3 5 -6 -3 -4 -25 1 -47 10 -23 9 -46 14
-51 11 -5 -4 -9 21 -9 59 0 72 3 74 59 55z m-1615 -49 c37 -12 64 -25 61 -30
-3 -5 -19 -4 -38 1 -17 6 -41 12 -51 14 -11 3 -24 9 -30 15 -21 21 -26 7 -26
-84 0 -104 -4 -98 75 -112 45 -7 82 -23 55 -24 -8 0 -42 7 -75 14 -56 14 -118
10 -187 -10 -16 -5 -18 4 -18 99 l0 105 58 15 c78 21 100 20 176 -3z m576 9
c-14 -6 -33 -12 -43 -14 -10 -2 -27 -7 -38 -10 -10 -4 -19 -2 -19 3 0 9 69 29
105 30 16 1 15 -1 -5 -9z m1511 -5 c51 -14 56 -19 56 -42 0 -26 0 -26 -9 -5
-7 13 -26 25 -53 32 -23 6 -50 13 -59 17 -14 5 -16 -5 -16 -89 l0 -96 58 -11
c55 -12 100 -29 75 -30 -6 0 -40 7 -75 14 -54 13 -72 13 -128 1 -35 -7 -67
-12 -71 -10 -3 2 -6 25 -7 50 -2 34 1 45 13 45 10 0 15 -10 15 -34 l0 -33 50
10 50 10 0 79 c0 65 -3 79 -14 75 -8 -3 -31 -9 -50 -13 -22 -4 -36 -12 -36
-21 0 -8 -6 -13 -12 -10 -7 2 -13 12 -13 23 0 15 13 23 60 36 77 21 96 21 166
2z m-673 0 c27 -8 29 -23 2 -21 -11 1 -20 5 -20 10 0 4 -4 5 -10 2 -5 -3 -10
-1 -10 4 0 12 6 13 38 5z m320 -18 c13 -3 34 -16 46 -29 15 -16 42 -28 84 -36
72 -14 83 -26 17 -17 -53 8 -78 18 -124 51 -20 15 -48 25 -67 25 -19 0 -34 5
-34 11 0 11 19 10 78 -5z m-1582 -34 c-9 -15 -70 -41 -112 -48 -22 -3 -42 -8
-46 -11 -5 -2 -8 0 -8 6 0 11 19 18 75 27 22 3 51 14 65 24 25 19 37 19 26 2z
m1944 3 c23 -5 25 -11 25 -60 l0 -55 -35 6 c-50 9 -50 9 -50 70 0 48 2 55 18
50 9 -3 28 -8 42 -11z m-2096 -1 c25 -10 19 -22 -9 -16 -22 4 -25 1 -25 -26 0
-24 5 -31 26 -36 14 -4 34 -4 45 -1 15 5 19 1 19 -19 0 -31 -1 -31 -62 -9
l-48 17 0 48 c0 50 11 58 54 42z m216 -64 c0 -40 4 -70 10 -70 6 0 10 -83 10
-230 0 -215 -1 -230 -18 -230 -25 0 -42 -19 -42 -47 0 -14 -6 -23 -15 -23 -8
0 -15 -6 -15 -14 0 -9 -7 -12 -21 -9 -11 3 -18 11 -15 19 3 7 -6 22 -19 33
-25 19 -25 20 -25 197 0 99 3 223 7 276 6 94 7 97 32 103 14 3 42 19 61 35 19
16 38 30 43 30 4 0 7 -31 7 -70z m758 4 c16 5 17 -12 14 -213 l-3 -218 -34 -1
-35 -1 0 244 c0 224 1 244 18 247 13 3 18 -4 20 -30 3 -26 7 -32 20 -28z m766
45 c20 -12 34 -25 31 -29 -3 -4 11 -11 30 -14 l35 -7 0 -64 c0 -37 4 -65 10
-65 6 0 10 -78 10 -213 l0 -214 -25 -11 c-15 -7 -25 -20 -25 -32 0 -11 -5 -20
-10 -20 -6 0 -15 -10 -20 -22 -8 -21 -9 -20 -9 10 -1 19 -6 32 -14 32 -7 0
-17 15 -22 33 -7 22 -17 33 -32 35 l-23 3 0 230 c0 146 4 229 10 229 6 0 10
30 10 70 0 39 2 70 4 70 3 0 21 -9 40 -21z m226 -33 c0 -40 -4 -55 -16 -60
-28 -11 -54 -6 -54 9 0 9 9 15 25 15 22 0 25 4 25 35 0 33 -2 35 -25 29 -15
-4 -25 -2 -25 4 0 11 20 19 53 21 14 1 17 -8 17 -53z m-1072 -451 c-2 -1 -20
-5 -40 -9 l-38 -7 0 244 c0 208 2 246 15 251 13 5 15 -26 15 -236 0 -133 3
-239 6 -236 3 4 6 110 7 237 2 194 4 233 17 241 13 8 15 -21 18 -237 1 -135 1
-247 0 -248z m142 392 c0 -52 3 -162 7 -245 5 -137 5 -152 -10 -152 -15 0 -17
24 -17 245 0 157 4 245 10 245 6 0 10 -38 10 -93z m-244 -404 c-3 -7 -10 -13
-16 -13 -16 0 -14 487 3 493 9 3 13 -49 15 -232 1 -130 0 -241 -2 -248z m344
232 c0 -157 -4 -245 -10 -245 -6 0 -10 88 -10 245 0 157 4 245 10 245 6 0 10
-88 10 -245z m-1380 226 c0 -11 -94 -35 -112 -29 -7 3 14 11 47 20 33 8 61 16
63 17 1 0 2 -3 2 -8z m2465 -8 c30 -9 55 -20 55 -24 0 -4 -26 1 -58 10 -31 10
-63 16 -70 13 -6 -2 -12 1 -12 7 0 15 20 14 85 -6z m-1875 -287 c0 -190 -2
-225 -15 -230 -13 -5 -15 24 -15 224 0 198 2 230 15 230 13 0 15 -32 15 -224z
m42 202 c2 -15 9 -22 21 -22 16 2 17 -14 17 -200 l0 -201 -35 -2 -35 -2 0 225
c0 188 2 224 14 224 8 0 16 -10 18 -22z m1118 -3 c0 -18 5 -25 20 -25 19 0 20
-7 20 -198 l0 -199 -35 -1 -35 -1 0 224 c0 193 2 225 15 225 9 0 15 -9 15 -25z
m-1210 -210 c0 -193 -2 -225 -15 -225 -13 0 -15 30 -15 209 0 115 3 216 6 225
18 47 24 -5 24 -209z m170 5 c0 -134 -4 -220 -10 -220 -9 0 -20 427 -11 436
17 17 21 -23 21 -216z m950 -5 c0 -193 -2 -225 -15 -225 -13 0 -15 31 -15 219
0 212 1 222 28 230 1 1 2 -100 2 -224z m50 6 c0 -181 -2 -220 -14 -224 -8 -3
-17 -3 -20 0 -8 8 -8 407 0 427 3 9 12 16 19 16 11 0 14 -44 15 -219z m117 -4
c5 -196 4 -217 -11 -217 -14 0 -16 24 -16 221 0 156 3 220 11 217 7 -2 13 -77
16 -221z m-1057 -7 c0 -140 -4 -220 -10 -220 -6 0 -10 80 -10 220 0 140 4 220
10 220 6 0 10 -80 10 -220z m1120 0 c0 -134 -4 -220 -10 -220 -5 0 -10 88 -12
220 -2 171 0 220 10 220 9 0 12 -51 12 -220z m-1738 155 c-3 -18 0 -25 12 -25
14 0 16 -21 16 -184 0 -181 0 -184 -22 -189 -12 -4 -23 -5 -25 -4 -2 2 -5 386
-3 420 0 4 6 7 14 7 9 0 12 -8 8 -25z m2088 0 c0 -16 6 -25 15 -25 13 0 15
-27 15 -185 0 -194 2 -185 -41 -189 -8 -1 -11 55 -11 194 0 107 0 203 1 213 2
27 21 20 21 -8z m-2130 -195 c0 -180 -2 -210 -15 -210 -13 0 -15 30 -15 210 0
180 2 210 15 210 13 0 15 -30 15 -210z m110 0 c0 -133 -4 -210 -10 -210 -6 0
-10 77 -10 210 0 133 4 210 10 210 6 0 10 -77 10 -210z m1980 0 c0 -180 -2
-210 -15 -210 -13 0 -15 30 -15 210 0 180 2 210 15 210 13 0 15 -30 15 -210z
m100 16 c0 -107 3 -201 6 -210 4 -11 1 -16 -10 -16 -14 0 -16 24 -16 210 0
133 4 210 10 210 6 0 10 -71 10 -194z m-2232 -23 c-2 -154 -6 -207 -15 -211
-10 -3 -13 43 -13 207 0 182 2 211 15 211 13 0 15 -27 13 -207z m212 -3 c0
-133 -4 -210 -10 -210 -6 0 -10 77 -10 210 0 133 4 210 10 210 6 0 10 -77 10
-210z m1878 3 c-2 -154 -6 -207 -15 -211 -10 -3 -13 43 -13 207 0 182 2 211
15 211 13 0 15 -27 13 -207z m202 -4 c0 -137 -3 -208 -10 -204 -6 4 -10 85
-10 211 0 129 4 204 10 204 6 0 10 -77 10 -211z m-1043 -129 c110 -15 123 -18
123 -36 0 -11 -8 -14 -32 -10 -18 3 -69 10 -113 16 -43 6 -83 16 -87 23 -6 9
-8 8 -8 -4 0 -13 -22 -18 -112 -29 -133 -15 -133 -15 -133 8 0 31 216 51 362
32z m-514 -75 c9 -4 17 -11 17 -17 0 -10 -90 -3 -147 12 -18 5 -33 5 -33 1 0
-9 -180 -29 -186 -20 -7 12 21 28 61 32 53 7 265 0 288 -8z m522 -5 c154 -17
155 -17 155 -51 0 -33 18 -33 -175 -8 -78 10 -164 7 -295 -11 -99 -14 -100
-14 -100 20 0 17 1 30 3 31 12 5 286 36 297 33 8 -1 60 -8 115 -14z m544 10
c100 -14 104 -34 6 -25 -44 4 -88 11 -97 16 -9 5 -18 5 -20 0 -2 -5 -43 -12
-92 -16 -73 -6 -88 -5 -84 6 8 25 172 36 287 19z m-1632 -31 c43 -6 82 -15 88
-20 11 -11 -44 -11 -105 1 -26 5 -68 4 -100 -1 -123 -21 -120 -21 -120 -5 0
15 23 22 100 29 19 2 40 5 47 5 6 1 47 -3 90 -9z m2131 -5 c23 -4 42 -11 42
-16 0 -7 -22 -8 -62 -3 -76 10 -82 10 -185 0 -58 -5 -83 -5 -83 3 0 6 19 13
43 16 23 3 56 8 72 10 31 4 98 0 173 -10z m-1524 -30 c9 -3 16 -11 16 -16 0
-11 -122 -2 -173 13 -44 12 -47 12 -47 -11 0 -26 -4 -27 -122 -35 l-98 -6 0
24 c0 22 5 25 73 35 72 11 320 8 351 -4z m1094 0 c36 -6 42 -10 42 -30 0 -23
-1 -24 -77 -18 -108 7 -123 11 -117 29 4 9 0 15 -10 15 -9 0 -16 -8 -16 -17 0
-16 -11 -18 -115 -15 -90 3 -115 6 -115 17 0 8 14 16 33 19 17 3 43 8 57 10
31 6 261 -2 318 -10z m-1590 -30 c33 -9 29 -35 -5 -28 -160 29 -183 31 -183
13 0 -14 -13 -18 -62 -23 -35 -4 -80 -9 -102 -12 -36 -6 -38 -5 -31 17 4 13 8
25 9 26 0 1 28 6 61 12 59 10 268 6 313 -5z m2060 0 c26 -5 32 -11 30 -28 -2
-11 -9 -20 -15 -19 -7 2 -44 6 -83 9 -54 5 -70 10 -66 20 3 8 -1 14 -9 14 -8
0 -15 -7 -15 -15 0 -12 -18 -15 -101 -15 -90 0 -100 2 -97 18 2 13 17 19 63
23 67 8 242 3 293 -7z m-984 -28 c291 -24 570 -41 846 -51 191 -7 207 -11 213
-42 4 -24 4 -24 -57 -18 -33 3 -185 10 -336 15 -151 6 -374 15 -495 21 -269
13 -539 13 -813 -1 -114 -5 -333 -14 -487 -20 -154 -5 -301 -13 -327 -16 -47
-6 -48 -6 -48 20 0 20 5 26 23 27 12 0 31 2 42 4 11 2 90 7 175 10 85 3 247
12 360 20 113 8 284 19 380 25 96 6 177 13 179 16 9 8 169 4 345 -10z m141
-121 c33 -2 143 -6 245 -9 102 -4 230 -9 285 -11 55 -2 172 -7 260 -11 199 -8
190 -6 190 -33 0 -23 0 -23 -165 -22 -91 1 -298 6 -460 11 -377 12 -1091 12
-1470 0 -162 -5 -362 -10 -445 -11 -134 -1 -150 1 -153 16 -2 9 0 21 5 25 4 4
94 11 198 14 105 4 210 9 235 11 25 2 135 7 245 11 110 4 274 10 365 14 155 7
531 4 665 -5z m820 -130 c33 -1 102 -3 153 -3 91 -2 92 -2 92 -27 l0 -25
-1430 0 -1430 0 0 25 c0 23 4 25 48 26 475 14 2228 17 2567 4z"/>
<path d="M1222 1660 c0 -92 3 -160 9 -160 5 0 9 59 10 135 1 74 2 145 2 157 1
12 -4 23 -10 25 -7 3 -11 -45 -11 -157z"/>
<path d="M1220 1440 c0 -27 4 -50 9 -50 12 0 17 27 13 68 -6 50 -22 38 -22
-18z"/>
<path d="M1759 1909 c0 -2 -2 -75 -3 -161 -2 -112 0 -158 8 -158 13 0 15 304
3 316 -4 4 -7 5 -8 3z"/>
<path d="M1753 1525 c0 -14 5 -25 12 -25 7 0 13 11 13 25 0 14 -6 25 -13 25
-7 0 -12 -11 -12 -25z"/>
<path d="M1504 1660 c0 -96 2 -136 3 -87 2 48 2 126 0 175 -1 48 -3 8 -3 -88z"/>
<path d="M944 1480 c0 -80 2 -112 3 -72 2 39 2 105 0 145 -1 39 -3 7 -3 -73z"/>
<path d="M663 1450 c0 -16 6 -30 12 -30 6 0 12 14 12 30 0 17 -6 30 -12 30 -6
0 -12 -13 -12 -30z"/>
<path d="M709 1478 c-8 -29 -5 -58 5 -58 7 0 13 12 13 30 0 17 -4 30 -9 30 -4
0 -8 -1 -9 -2z"/>
<path d="M665 1253 c2 -77 21 -79 21 -3 1 39 -3 60 -11 60 -7 0 -11 -20 -10
-57z"/>
<path d="M2272 1450 c1 -16 6 -30 13 -30 6 0 12 14 12 30 0 18 -6 30 -13 30
-8 0 -12 -12 -12 -30z"/>
<path d="M2272 1379 c-1 -37 20 -34 24 4 2 17 -2 27 -10 27 -8 0 -13 -13 -14
-31z"/>
<path d="M2273 1270 c-1 -48 2 -70 10 -70 8 0 12 23 12 70 0 93 -20 93 -22 0z"/>
<path d="M2313 1255 c0 -14 5 -25 12 -25 7 0 13 11 13 25 0 14 -6 25 -13 25
-7 0 -12 -11 -12 -25z"/>
<path d="M463 1350 c0 -36 2 -50 4 -32 2 17 2 47 0 65 -2 17 -4 3 -4 -33z"/>
<path d="M2544 1360 c0 -58 1 -81 3 -52 2 28 2 76 0 105 -2 28 -3 5 -3 -53z"/>
<path d="M1388 1323 c-14 -3 -18 -15 -18 -50 0 -42 2 -45 23 -39 12 3 25 6 30
6 4 0 7 20 7 45 0 45 -3 48 -42 38z"/>
<path d="M1570 1285 c0 -32 4 -45 14 -45 8 0 21 -3 30 -6 13 -5 16 2 16 39 0
32 -5 47 -16 51 -36 14 -44 7 -44 -39z"/>
<path d="M1179 1148 c-6 -92 -3 -188 7 -188 8 0 11 31 11 100 0 55 -4 100 -8
100 -5 0 -9 -6 -10 -12z"/>
<path d="M1219 1121 c-4 -88 -2 -125 9 -129 9 -3 12 15 12 62 0 36 0 69 1 73
0 4 -4 9 -10 11 -6 2 -11 -6 -12 -17z"/>
<path d="M1178 913 c-10 -22 -1 -137 10 -141 10 -3 12 15 11 72 -1 66 -10 93
-21 69z"/>
<path d="M1219 825 c-5 -23 -2 -49 7 -52 6 -2 11 10 12 27 0 16 -4 30 -9 30
-5 0 -9 -2 -10 -5z"/>
<path d="M1166 744 c-31 -30 -9 -84 34 -84 17 0 50 34 50 52 0 13 -39 48 -54
48 -8 0 -22 -7 -30 -16z m54 -34 c0 -13 -7 -20 -20 -20 -13 0 -20 7 -20 20 0
13 7 20 20 20 13 0 20 -7 20 -20z"/>
<path d="M1755 988 c1 -130 5 -213 11 -215 6 -2 10 74 10 212 0 151 -3 215
-11 215 -8 0 -11 -63 -10 -212z"/>
<path d="M1798 1143 c-2 -10 -4 -96 -3 -192 1 -123 5 -176 13 -179 8 -2 11 46
9 187 -2 174 -8 230 -19 184z"/>
<path d="M1768 749 c-26 -15 -23 -65 3 -80 34 -18 69 3 69 40 0 42 -36 62 -72
40z m50 -36 c5 -17 -26 -29 -40 -15 -6 6 -7 15 -3 22 9 14 37 9 43 -7z"/>
<path d="M847 1183 c-4 -3 -7 -23 -7 -44 0 -32 3 -36 20 -32 16 4 20 14 20 44
0 37 -15 51 -33 32z"/>
<path d="M2122 1159 c2 -37 7 -45 26 -47 20 -3 22 1 22 37 0 23 -4 41 -9 41
-5 0 -17 3 -26 6 -14 6 -16 0 -13 -37z"/>
<path d="M380 1136 l-45 -12 -3 -72 c-3 -80 -5 -78 71 -66 l37 7 0 78 c0 44
-3 79 -7 78 -5 -1 -28 -6 -53 -13z m28 -127 c-7 -5 -23 -9 -35 -9 -21 0 -23 5
-23 55 0 53 1 55 33 63 l32 8 3 -54 c2 -37 -1 -58 -10 -63z"/>
<path d="M377 1093 c-14 -13 -7 -63 8 -63 10 0 15 11 15 35 0 33 -8 43 -23 28z"/>
<path d="M2602 1068 c2 -22 9 -34 21 -36 14 -3 17 4 17 32 0 30 -4 36 -21 36
-17 0 -20 -5 -17 -32z"/>
<path d="M708 1073 c-9 -20 -1 -107 10 -111 8 -2 11 14 10 57 -2 54 -10 76
-20 54z"/>
<path d="M669 1049 c-8 -40 -5 -89 6 -89 14 0 16 72 3 86 -5 4 -8 5 -9 3z"/>
<path d="M664 860 c1 -58 5 -90 12 -90 7 0 11 32 11 90 -1 61 -4 90 -12 90 -8
0 -11 -28 -11 -90z"/>
<path d="M704 860 c0 -60 4 -90 12 -90 7 0 11 30 11 90 -1 58 -5 90 -12 90 -7
0 -11 -32 -11 -90z"/>
<path d="M674 740 c-28 -11 -36 -43 -17 -69 16 -24 55 -28 73 -7 29 36 -13 93
-56 76z m42 -31 c3 -6 0 -17 -7 -25 -18 -17 -44 -2 -36 20 7 18 33 21 43 5z"/>
<path d="M1504 845 c0 -110 2 -156 3 -103 2 53 2 143 0 200 -1 57 -3 13 -3
-97z"/>
<path d="M2273 940 c0 -91 4 -139 11 -137 14 5 14 269 0 274 -7 2 -11 -43 -11
-137z"/>
<path d="M2311 990 c-1 -48 1 -60 14 -60 8 0 15 5 15 10 0 6 -6 10 -12 10 -9
0 -8 4 2 10 13 9 13 11 0 20 -9 6 -10 10 -3 10 14 0 10 53 -4 57 -6 2 -11 -22
-12 -57z"/>
<path d="M2313 895 c0 -14 5 -25 12 -25 7 0 13 11 13 25 0 14 -6 25 -13 25 -7
0 -12 -11 -12 -25z"/>
<path d="M2312 829 c-1 -37 20 -34 24 4 2 17 -2 27 -10 27 -8 0 -13 -13 -14
-31z"/>
<path d="M2288 743 c-22 -5 -35 -50 -21 -72 13 -21 57 -26 72 -7 27 33 -9 89
-51 79z m37 -33 c4 -6 1 -18 -6 -26 -11 -13 -14 -13 -27 0 -8 8 -11 19 -8 25
9 14 33 14 41 1z"/>
<path d="M944 745 c0 -88 2 -123 3 -77 2 46 2 118 0 160 -1 42 -3 5 -3 -83z"/>
<path d="M1568 223 c23 -2 61 -2 85 0 23 2 4 4 -43 4 -47 0 -66 -2 -42 -4z"/>
<path d="M1618 93 c34 -2 90 -2 125 0 34 2 6 3 -63 3 -69 0 -97 -1 -62 -3z"/>
<path d="M199 1694 c-5 -44 -2 -101 6 -107 6 -6 6 -10 -3 -14 -13 -5 -7 -23 9
-23 11 0 7 136 -4 147 -4 3 -7 2 -8 -3z"/>
<path d="M2789 1620 c-1 -11 -2 -30 -2 -42 -1 -12 3 -23 9 -25 6 -2 11 15 11
42 1 43 -16 66 -18 25z"/>
<path d="M2750 1547 c0 -20 0 -40 -1 -44 0 -4 4 -9 9 -11 11 -3 11 73 0 84 -5
4 -8 -9 -8 -29z"/>
<path d="M235 1548 c2 -31 23 -34 23 -3 0 14 -6 25 -13 25 -6 0 -11 -10 -10
-22z"/>
<path d="M2784 1435 c0 -27 5 -45 12 -45 6 0 11 18 10 45 0 25 -5 45 -11 45
-6 0 -11 -19 -11 -45z"/>
<path d="M199 1445 c-5 -23 -2 -49 7 -52 6 -2 11 10 12 27 0 16 -4 30 -9 30
-5 0 -9 -2 -10 -5z"/>
<path d="M239 1448 c0 -2 -2 -22 -3 -45 -2 -28 1 -43 9 -43 7 0 12 17 11 45 0
25 -4 45 -8 45 -4 0 -8 -1 -9 -2z"/>
<path d="M2749 1445 c-5 -23 -2 -49 7 -52 6 -2 11 10 12 27 0 16 -4 30 -9 30
-5 0 -9 -2 -10 -5z"/>
<path d="M2745 1243 c1 -85 5 -138 11 -140 7 -2 11 45 10 137 0 92 -3 140 -10
140 -7 0 -11 -46 -11 -137z"/>
<path d="M199 1345 c-1 -3 -1 -14 -1 -25 0 -46 3 -60 12 -60 5 0 9 20 8 45 -1
25 -6 45 -10 45 -4 0 -8 -2 -9 -5z"/>
<path d="M235 1220 c0 -71 3 -130 8 -130 10 0 10 -1 12 138 1 83 -2 122 -9
122 -8 0 -11 -42 -11 -130z"/>
<path d="M2784 1323 c4 -38 25 -41 24 -4 -1 18 -6 31 -14 31 -8 0 -12 -10 -10
-27z"/>
<path d="M2785 1210 c0 -46 4 -70 11 -70 8 0 12 24 11 70 0 43 -5 70 -11 70
-7 0 -11 -27 -11 -70z"/>
<path d="M203 1236 c3 -7 0 -19 -6 -25 -8 -8 -8 -11 2 -11 7 0 9 -5 5 -12 -10
-16 -12 -78 -2 -78 4 0 5 -7 2 -15 -4 -8 -2 -15 4 -15 6 0 10 35 11 85 1 56
-3 85 -10 85 -6 0 -9 -6 -6 -14z"/>
<path d="M2789 1125 c-1 -3 -2 -14 -2 -25 -2 -29 18 -25 20 5 1 14 -2 25 -8
25 -5 0 -9 -2 -10 -5z"/>
<path d="M199 985 c-5 -23 -2 -49 7 -52 6 -2 11 10 11 27 0 16 -4 30 -9 30 -4
0 -8 -2 -9 -5z"/>
<path d="M238 983 c-2 -5 -3 -23 -3 -42 1 -53 21 -49 23 4 2 39 -10 60 -20 38z"/>
<path d="M2749 988 c-7 -19 -1 -118 7 -118 6 0 11 24 11 60 0 33 -4 60 -8 60
-5 0 -9 -1 -10 -2z"/>
<path d="M2789 988 c0 -2 -2 -29 -3 -60 -2 -38 2 -58 9 -58 8 0 12 22 12 60 0
33 -4 60 -8 60 -5 0 -9 -1 -10 -2z"/>
<path d="M195 880 c-3 -5 -1 -10 6 -10 8 0 8 -4 -1 -15 -10 -12 -10 -15 4 -15
10 0 16 9 16 25 0 25 -14 33 -25 15z"/>
<path d="M2744 815 c0 -30 5 -45 13 -45 9 0 13 14 11 45 -1 26 -6 45 -12 45
-7 0 -12 -18 -12 -45z"/>
<path d="M2785 818 c3 -58 22 -60 22 -3 0 29 -4 45 -12 45 -8 0 -11 -15 -10
-42z"/>
<path d="M199 828 c-8 -31 -5 -58 6 -58 9 0 13 11 13 30 -1 17 -5 30 -10 30
-4 0 -8 -1 -9 -2z"/>
<path d="M238 825 c-8 -8 3 -55 13 -55 5 0 9 14 9 30 0 28 -9 38 -22 25z"/>
<path d="M181 718 c-13 -33 9 -63 45 -63 35 0 56 43 34 69 -20 25 -69 20 -79
-6z m65 -9 c3 -6 0 -17 -7 -25 -18 -17 -44 -2 -36 20 7 18 33 21 43 5z"/>
<path d="M2741 718 c-20 -52 57 -95 80 -45 16 36 -3 67 -42 67 -22 0 -32 -6
-38 -22z m59 -17 c0 -21 -26 -36 -36 -20 -9 15 3 39 21 39 8 0 15 -9 15 -19z"/>
</g>
</svg>
